<svg width="15" height="15" viewBox="0 0 15 15" fill="none" xmlns="http://www.w3.org/2000/svg">
<path d="M7.194 0.494991C8.09859 0.494991 8.97584 0.672037 9.8014 1.02123C10.5991 1.3586 11.3155 1.8417 11.9309 2.45709C12.5463 3.07249 13.0294 3.78895 13.3668 4.5866C13.716 5.41216 13.893 6.28944 13.893 7.194C13.893 8.09856 13.716 8.97584 13.3668 9.8014C13.0294 10.5991 12.5463 11.3155 11.9309 11.9309C11.3155 12.5463 10.5991 13.0294 9.8014 13.3668C8.97584 13.716 8.09856 13.893 7.194 13.893C6.28944 13.893 5.41216 13.716 4.5866 13.3668C3.78895 13.0294 3.07247 12.5463 2.45709 11.9309C1.84172 11.3155 1.35862 10.5991 1.02123 9.8014C0.672037 8.97584 0.494991 8.09856 0.494991 7.194C0.494991 6.28944 0.672037 5.41216 1.02123 4.5866C1.3586 3.78895 1.8417 3.07247 2.45709 2.45709C3.07249 1.84172 3.78895 1.35862 4.5866 1.02123C5.41216 0.672037 6.28944 0.494991 7.194 0.494991ZM7.194 0C3.22088 0 0 3.22085 0 7.194C0 11.1671 3.22088 14.388 7.194 14.388C11.1671 14.388 14.388 11.1671 14.388 7.194C14.388 3.22088 11.1671 0 7.194 0Z" fill="#FAD493"/>
<path d="M7.95403 4.12499V6.26457C7.95403 6.35811 8.02988 6.43396 8.12343 6.43396H10.263V7.95402H8.12343C8.02988 7.95402 7.95403 8.02987 7.95403 8.12341V10.263H6.43398V8.12341C6.43398 8.02987 6.35813 7.95402 6.26458 7.95402H4.12501V6.43396H6.26458C6.35813 6.43396 6.43398 6.35811 6.43398 6.26457V4.12499H7.95403ZM8.17194 3.63H6.21604C6.06295 3.63 5.93896 3.75398 5.93896 3.90708V5.93897H3.90707C3.75398 5.93897 3.62999 6.06295 3.62999 6.21605V8.17195C3.62999 8.32505 3.75398 8.44903 3.90707 8.44903H5.93896V10.4809C5.93896 10.634 6.06295 10.758 6.21604 10.758H8.17194C8.32504 10.758 8.44902 10.634 8.44902 10.4809V8.44903H10.4809C10.634 8.44903 10.758 8.32505 10.758 8.17195V6.21605C10.758 6.06295 10.634 5.93897 10.4809 5.93897H8.44902V3.90708C8.44902 3.75398 8.32506 3.63 8.17194 3.63Z" fill="#FAD493"/>
</svg>
