<svg width="76" height="87" viewBox="0 0 76 87" fill="none" xmlns="http://www.w3.org/2000/svg">
<path d="M42.725 55.9952L43.7606 54.8179H41.6444L42.725 55.9952Z" fill="white"/>
<path d="M3.67463 3.67477V82.3861H48.1354V71.1671C48.1354 70.6831 48.3329 70.21 48.6753 69.8677C49.0176 69.5258 49.4897 69.3297 49.9741 69.3297H61.6668V44.5191L45.2694 63.1553C44.6466 63.8619 43.752 64.2717 42.7773 64.2816C41.8493 64.2816 40.9565 63.8897 40.33 63.2059L32.6325 54.8179H10.4195V49.3621H48.4703V49.4654L51.7205 45.7722H10.4195V40.3159H54.7733V42.3015L61.6668 34.4676V3.67477H3.67463ZM54.7733 36.7261H10.4195V31.2703H54.7733V36.7261ZM54.7733 27.6801H16.8818V22.2243H54.7733V27.6801Z" fill="#D9D9D9"/>
<path d="M61.6668 69.3297H49.9741C49.4897 69.3297 49.0176 69.5258 48.6753 69.8677C48.3329 70.21 48.1354 70.6831 48.1354 71.1671V82.3861H3.67463V3.67477H61.6668V34.4676L65.3426 30.2909V1.83746C65.3426 1.35351 65.1461 0.880438 64.8048 0.538002C64.4624 0.196038 63.9883 0 63.5048 0H1.83794C1.35241 0 0.880438 0.196038 0.538002 0.538002C0.195566 0.880438 0 1.35351 0 1.83746V84.2245C0 84.7085 0.195566 85.1816 0.538002 85.524C0.880438 85.866 1.35241 86.062 1.83794 86.062H52.2719C52.7554 86.062 53.2247 85.8693 53.5662 85.5284L59.2322 79.8996L59.2398 79.892L64.8067 74.3018C65.1491 73.9584 65.3428 73.4883 65.3428 73.0047V40.3418L61.6668 44.5191V69.3297ZM51.8121 82.452V73.0045H61.6001L51.8121 82.452Z" fill="#2B4D6B"/>
<path d="M51.8121 82.452L61.6001 73.0045H51.8121V82.452Z" fill="#D9D9D9"/>
<path d="M54.7733 22.2243H16.8818V27.6801H54.7733V22.2243Z" fill="#2B4D6B"/>
<path d="M54.7733 31.2703H10.4195V36.7261H54.7733V31.2703Z" fill="#2B4D6B"/>
<path d="M10.4195 40.3159V45.7722H51.7205L54.7733 42.3015V40.3159H10.4195Z" fill="#2B4D6B"/>
<path d="M10.4195 49.3621V54.8179H32.6325L29.6847 51.6048C29.4128 51.3073 29.3671 50.867 29.5731 50.5198C29.74 50.2379 30.0414 50.071 30.359 50.071L30.5783 50.0983L39.013 52.1755C39.1876 52.2194 39.3449 52.3132 39.467 52.4459L41.6444 54.8179H43.7606L48.4703 49.4654V49.3621H10.4195Z" fill="#2B4D6B"/>
<path d="M74.8149 28.1917L71.2041 25.0139C71.0372 24.8656 70.8226 24.785 70.6004 24.785L70.5422 24.7869C70.2991 24.8017 70.0729 24.9132 69.9136 25.0959L65.3426 30.2909L61.6668 34.4676L54.7733 42.3015L51.7205 45.7722L48.4703 49.4654L43.7606 54.8179L42.725 55.9952L41.6444 54.8179L39.467 52.4459C39.3449 52.3132 39.1876 52.2194 39.013 52.1755L30.5783 50.0983L30.359 50.071C30.0414 50.071 29.74 50.2379 29.5731 50.5198C29.3671 50.867 29.4128 51.3073 29.6847 51.6048L32.6325 54.8179L40.33 63.2059C40.9565 63.8897 41.8493 64.2816 42.7773 64.2816C43.752 64.2717 44.6466 63.8619 45.2694 63.1553L61.6668 44.5191L65.3428 40.3418L74.8979 29.4815C75.2326 29.103 75.1955 28.525 74.8149 28.1917Z" fill="#E3C170"/>
</svg>
