<svg width="34" height="37" viewBox="0 0 34 37" fill="none" xmlns="http://www.w3.org/2000/svg">
<path d="M20.6268 2.87768L22.7481 2.8612L22.734 1.05231C22.7315 0.772898 22.6164 0.500818 22.4172 0.305176C22.2177 0.108872 21.9444 -0.00206508 21.6649 2.91223e-05L11.2064 0.0817025C10.9283 0.0842376 10.6556 0.199364 10.4593 0.398037C10.263 0.597041 10.153 0.870885 10.1549 1.15046L10.1696 2.95935L12.2896 2.94304L12.2835 2.19464L20.6208 2.12944L20.6268 2.87768Z" fill="#1B1E3E"/>
<path d="M2.53435 9.76367C2.20022 9.76654 1.88405 9.91732 1.67204 10.1758C1.46009 10.4341 1.37411 10.7738 1.43644 11.1016L6.13257 35.6104C6.23519 36.1445 6.7039 36.5292 7.2474 36.5251L26.2239 36.3766C26.7644 36.3724 27.2271 35.984 27.3236 35.4523L31.8018 10.8721C31.8622 10.5435 31.7707 10.2015 31.5559 9.94554C31.341 9.68944 31.0195 9.54142 30.6853 9.54428L2.53435 9.76367ZM10.6257 34.8614C10.016 34.9584 9.44251 34.5431 9.34628 33.9342L6.1221 13.7328C6.02456 13.1222 6.43954 12.55 7.05049 12.4529C7.65985 12.3555 8.23311 12.7702 8.32994 13.3802L11.5538 33.5813C11.6513 34.1905 11.2354 34.764 10.6257 34.8614ZM16.8069 34.9414C16.189 34.9466 15.6842 34.4497 15.6803 33.8321L15.5198 13.3762C15.516 12.7583 16.0124 12.2543 16.6289 12.2497C17.2475 12.2446 17.7523 12.7411 17.7565 13.3586L17.917 33.8147C17.9208 34.4322 17.4243 34.9368 16.8069 34.9414ZM27.159 13.5683L24.2516 33.8177C24.163 34.4282 23.5971 34.8526 22.9856 34.7646C22.374 34.6774 21.9494 34.1105 22.038 33.4996L24.9454 13.2501C25.0336 12.6393 25.6001 12.2152 26.2117 12.3033C26.823 12.3912 27.2475 12.9569 27.159 13.5683Z" fill="#1B1E3E"/>
<path d="M0.026563 8.7173L33.1765 8.4585L33.1499 5.08226L30.0751 5.10607L30.0616 3.33041C30.0593 3.19164 30.0031 3.05646 29.9043 2.96007C29.8055 2.86241 29.6687 2.80741 29.5312 2.80819L22.7481 2.8612L20.6268 2.87768L12.2896 2.94304L10.1696 2.95935L3.84572 3.00862C3.70761 3.00978 3.57204 3.06682 3.47587 3.16591C3.378 3.26406 3.32267 3.40024 3.32366 3.53901L3.33705 5.31527L0 5.34117L0.026563 8.7173Z" fill="#2B4D6B"/>
<path d="M16.6289 12.2497C16.0124 12.2543 15.516 12.7583 15.5198 13.3762L15.6803 33.8321C15.6842 34.4497 16.189 34.9466 16.8069 34.9414C17.4243 34.9368 17.9208 34.4322 17.917 33.8147L17.7565 13.3586C17.7523 12.7411 17.2475 12.2446 16.6289 12.2497Z" fill="#2B4D6B"/>
<path d="M24.9454 13.2501L22.038 33.4996C21.9494 34.1105 22.374 34.6774 22.9856 34.7646C23.5971 34.8526 24.163 34.4282 24.2516 33.8177L27.159 13.5683C27.2475 12.9569 26.823 12.3912 26.2117 12.3033C25.6001 12.2152 25.0336 12.6393 24.9454 13.2501Z" fill="#2B4D6B"/>
<path d="M7.05049 12.4529C6.43954 12.55 6.02456 13.1222 6.1221 13.7328L9.34628 33.9342C9.44251 34.5431 10.016 34.9584 10.6257 34.8614C11.2354 34.764 11.6513 34.1905 11.5538 33.5813L8.32994 13.3802C8.23311 12.7702 7.65985 12.3555 7.05049 12.4529Z" fill="#2B4D6B"/>
</svg>
